<?xml version="1.0" standalone="no"?>
<!DOCTYPE svg PUBLIC "-//W3C//DTD SVG 20010904//EN"
 "http://www.w3.org/TR/2001/REC-SVG-20010904/DTD/svg10.dtd">
<svg version="1.0" xmlns="http://www.w3.org/2000/svg"
 width="1280.000000pt" height="720.000000pt" viewBox="0 0 1280.000000 720.000000"
 preserveAspectRatio="xMidYMid meet">

<g transform="translate(0.000000,720.000000) scale(0.100000,-0.100000)"
fill="#000000" stroke="none">
<path d="M4294 6303 c-36 -7 -67 -48 -60 -78 6 -25 33 -41 100 -61 63 -19 56
-74 -9 -74 -24 0 -39 7 -53 25 -24 30 -42 32 -42 6 0 -69 155 -83 180 -16 18
47 -2 72 -72 93 -55 16 -63 21 -63 43 0 21 5 24 37 27 29 2 40 -2 50 -17 17
-27 48 -28 41 -2 -10 39 -60 63 -109 54z"/>
<path d="M4450 6280 c0 -11 7 -20 15 -20 8 0 15 9 15 20 0 11 -7 20 -15 20 -8
0 -15 -9 -15 -20z"/>
<path d="M4620 6280 c0 -11 7 -20 15 -20 8 0 15 9 15 20 0 11 -7 20 -15 20 -8
0 -15 -9 -15 -20z"/>
<path d="M4960 6288 c0 -6 12 -60 27 -120 35 -140 54 -143 88 -13 10 39 21 73
24 78 4 4 15 -26 26 -65 10 -40 22 -81 27 -90 15 -31 37 -20 48 25 6 23 20 75
31 115 11 41 18 76 15 79 -16 17 -34 -14 -51 -86 -10 -45 -22 -78 -26 -74 -4
4 -16 42 -26 83 -16 61 -23 76 -40 78 -17 3 -22 -5 -32 -45 -36 -146 -38 -147
-61 -43 -6 30 -14 63 -17 73 -5 19 -33 24 -33 5z"/>
<path d="M5432 6183 l3 -117 51 -3 c73 -4 104 21 104 83 0 72 -55 113 -111 84
-17 -10 -19 -7 -19 30 0 29 -4 40 -15 40 -13 0 -15 -17 -13 -117z m110 10 c35
-31 16 -103 -27 -103 -25 0 -55 33 -55 60 0 23 29 60 47 60 9 0 25 -7 35 -17z"/>
<path d="M4530 6266 c0 -13 -7 -26 -15 -30 -8 -3 -15 -10 -15 -16 0 -5 7 -10
15 -10 12 0 15 -14 15 -70 0 -38 3 -70 8 -70 4 0 17 -3 30 -6 16 -5 22 -2 22
10 0 9 -7 16 -15 16 -12 0 -15 13 -15 60 0 47 3 60 15 60 8 0 15 7 15 15 0 8
-6 14 -12 13 -8 -2 -14 9 -16 25 -4 34 -32 37 -32 3z"/>
<path d="M4450 6150 c0 -73 3 -90 15 -90 12 0 15 16 15 84 0 65 -3 85 -15 90
-13 4 -15 -9 -15 -84z"/>
<path d="M4624 6227 c-10 -27 1 -160 14 -165 9 -3 12 19 12 87 0 56 -4 91 -10
91 -6 0 -13 -6 -16 -13z"/>
<path d="M4714 6217 c-21 -19 -27 -32 -27 -67 0 -35 6 -48 27 -67 59 -50 136
-12 136 67 0 78 -78 116 -136 67z m96 -39 c13 -25 13 -31 0 -55 -30 -54 -90
-35 -90 28 0 59 61 77 90 27z"/>
<path d="M5275 6215 c-54 -53 -18 -155 55 -155 29 0 70 29 70 50 0 15 -26 12
-40 -5 -18 -21 -57 -19 -70 4 -16 30 -14 31 50 31 60 0 60 0 60 29 0 35 -40
71 -77 71 -13 0 -35 -11 -48 -25z m83 -17 c21 -21 13 -28 -33 -28 -25 0 -45 4
-45 8 0 15 24 32 45 32 12 0 26 -5 33 -12z"/>
<path d="M4912 5760 c0 -91 -1 -173 -2 -182 0 -10 -7 -18 -15 -18 -8 0 -15 -4
-15 -10 0 -5 7 -10 15 -10 12 0 15 -13 15 -55 0 -46 3 -55 18 -54 10 0 12 3 5
6 -8 3 -13 24 -13 54 l0 49 40 0 c23 0 40 5 40 11 0 8 -14 10 -40 6 -35 -4
-40 -2 -40 14 0 10 6 19 13 19 9 0 9 2 0 8 -9 6 -13 56 -16 167 l-3 160 -2
-165z"/>
<path d="M3935 5550 c-14 -6 -2 -9 43 -9 35 -1 62 3 62 9 0 12 -77 12 -105 0z"/>
<path d="M4160 5550 c0 -6 27 -10 60 -10 33 0 60 4 60 10 0 6 -27 10 -60 10
-33 0 -60 -4 -60 -10z"/>
<path d="M4400 5550 c0 -6 27 -10 60 -10 33 0 60 4 60 10 0 6 -27 10 -60 10
-33 0 -60 -4 -60 -10z"/>
<path d="M4640 5550 c0 -6 27 -10 60 -10 33 0 60 4 60 10 0 6 -27 10 -60 10
-33 0 -60 -4 -60 -10z"/>
<path d="M5120 5550 c0 -6 27 -10 60 -10 33 0 60 4 60 10 0 6 -27 10 -60 10
-33 0 -60 -4 -60 -10z"/>
<path d="M5360 5550 c0 -6 27 -10 60 -10 33 0 60 4 60 10 0 6 -27 10 -60 10
-33 0 -60 -4 -60 -10z"/>
<path d="M5600 5550 c0 -6 27 -10 60 -10 33 0 60 4 60 10 0 6 -27 10 -60 10
-33 0 -60 -4 -60 -10z"/>
<path d="M5840 5550 c0 -6 27 -10 60 -10 33 0 60 4 60 10 0 6 -27 10 -60 10
-33 0 -60 -4 -60 -10z"/>
<path d="M6080 5552 c0 -6 27 -12 60 -14 33 -1 60 0 60 5 0 4 -13 7 -29 7 -16
0 -43 3 -60 6 -19 4 -31 2 -31 -4z"/>
<path d="M3733 5523 c-62 -22 -53 -33 12 -14 30 9 55 19 55 24 0 10 -19 8 -67
-10z"/>
<path d="M6320 5522 c0 -11 99 -56 107 -49 2 3 -9 13 -26 21 -48 25 -81 36
-81 28z"/>
<path d="M3541 5395 c-17 -20 -31 -41 -31 -47 0 -7 3 -8 8 -2 4 5 23 26 41 47
19 20 30 37 24 37 -6 0 -25 -16 -42 -35z"/>
<path d="M4920 5410 c13 -9 13 -11 0 -20 -13 -8 -12 -10 3 -10 10 0 17 8 17
20 0 12 -7 20 -17 20 -15 0 -16 -2 -3 -10z"/>
<path d="M6535 5363 c27 -47 44 -67 51 -61 7 8 -46 88 -58 88 -5 0 -2 -12 7
-27z"/>
<path d="M4165 5350 c-4 -6 25 -10 79 -10 51 0 86 4 86 10 0 6 -33 10 -79 10
-44 0 -83 -4 -86 -10z"/>
<path d="M4500 5350 c0 -6 32 -10 75 -10 43 0 75 4 75 10 0 6 -32 10 -75 10
-43 0 -75 -4 -75 -10z"/>
<path d="M4820 5350 c0 -6 32 -10 75 -10 43 0 75 4 75 10 0 6 -32 10 -75 10
-43 0 -75 -4 -75 -10z"/>
<path d="M5140 5350 c0 -6 32 -10 75 -10 43 0 75 4 75 10 0 6 -32 10 -75 10
-43 0 -75 -4 -75 -10z"/>
<path d="M5460 5350 c0 -6 32 -10 75 -10 43 0 75 4 75 10 0 6 -32 10 -75 10
-43 0 -75 -4 -75 -10z"/>
<path d="M5780 5353 c0 -9 141 -36 149 -28 7 7 -46 24 -99 31 -29 4 -50 3 -50
-3z"/>
<path d="M3910 5328 c-64 -33 -63 -53 2 -23 29 14 58 25 65 25 6 0 15 5 18 10
11 18 -40 11 -85 -12z"/>
<path d="M4182 5264 c-16 -11 -22 -25 -22 -54 0 -53 21 -71 76 -68 42 3 44 4
44 36 0 30 -2 32 -32 31 -24 -1 -27 -3 -10 -6 27 -5 29 -29 2 -43 -32 -17 -60
4 -60 43 0 18 5 38 12 45 17 17 57 15 64 -3 7 -16 24 -21 24 -6 0 17 -31 41
-53 41 -13 0 -33 -7 -45 -16z"/>
<path d="M5150 5210 c0 -40 4 -70 10 -70 6 0 10 30 10 70 0 40 -4 70 -10 70
-6 0 -10 -30 -10 -70z"/>
<path d="M5301 5213 l-1 -73 33 0 c40 0 57 15 57 50 0 33 -17 50 -51 50 -21 0
-29 6 -32 23 -2 12 -5 -11 -6 -50z m69 -28 c0 -13 -6 -25 -13 -28 -31 -12 -55
34 -31 58 20 20 44 3 44 -30z"/>
<path d="M5410 5210 c0 -40 4 -70 10 -70 6 0 10 30 10 70 0 40 -4 70 -10 70
-6 0 -10 -30 -10 -70z"/>
<path d="M4300 5188 c0 -26 5 -48 10 -48 6 0 10 11 10 24 0 35 10 56 26 56 8
0 14 4 14 9 0 5 -13 9 -30 9 -29 -1 -30 -3 -30 -50z"/>
<path d="M4372 5193 c3 -48 3 -48 41 -50 l37 -1 0 49 c0 27 -4 49 -10 49 -5 0
-10 -18 -10 -39 0 -24 -5 -41 -14 -44 -20 -8 -26 2 -26 45 0 21 -5 38 -11 38
-6 0 -9 -19 -7 -47z"/>
<path d="M4470 5175 c0 -35 5 -67 10 -70 6 -3 10 3 10 14 0 15 8 21 31 23 41
4 57 28 43 65 -8 24 -15 28 -52 29 l-42 2 0 -63z m80 16 c0 -27 -20 -42 -42
-30 -23 12 -23 45 -1 58 21 11 43 -3 43 -28z"/>
<path d="M4596 5224 c-33 -32 -8 -84 39 -84 24 0 45 25 45 54 0 20 -28 46 -50
46 -10 0 -26 -7 -34 -16z m62 -30 c4 -29 -23 -51 -43 -34 -16 13 -20 42 -8 54
14 14 48 1 51 -20z"/>
<path d="M4757 5219 c-15 -21 -12 -59 7 -71 16 -11 54 -9 61 3 10 15 -3 25
-17 11 -8 -8 -16 -8 -32 1 -19 11 -18 12 19 17 33 4 39 8 37 25 -7 39 -52 47
-75 14z m44 -17 c-28 -4 -40 6 -21 18 9 6 20 4 29 -3 12 -10 11 -13 -8 -15z"/>
<path d="M4853 5224 c-7 -18 20 -44 44 -44 7 0 13 -4 13 -9 0 -17 -21 -23 -36
-10 -17 14 -33 4 -17 -12 6 -6 23 -9 39 -7 39 4 39 38 1 56 -15 7 -25 18 -22
23 4 5 13 5 25 -1 27 -14 34 -12 20 5 -17 20 -59 19 -67 -1z"/>
<path d="M4948 5216 c-14 -33 3 -76 31 -76 30 0 51 11 51 26 0 19 -10 18 -25
-3 -11 -15 -15 -15 -29 -3 -10 7 -16 23 -14 34 2 17 10 21 36 19 43 -2 37 21
-6 25 -26 3 -34 -1 -44 -22z"/>
<path d="M5055 5230 c-11 -17 3 -24 19 -11 8 7 20 10 26 6 17 -10 11 -25 -9
-25 -25 0 -52 -27 -45 -45 4 -9 20 -14 48 -13 l42 0 -6 47 c-5 43 -7 46 -37
49 -17 2 -34 -2 -38 -8z m55 -54 c0 -16 -27 -29 -42 -20 -7 5 -4 12 7 21 24
17 35 17 35 -1z"/>
<path d="M5199 5223 c-12 -15 -12 -16 6 -9 31 12 37 12 42 0 2 -6 -10 -14 -27
-18 -26 -5 -31 -10 -28 -28 2 -19 10 -23 45 -24 l41 -2 -5 37 c-2 20 -6 42 -9
49 -5 18 -49 15 -65 -5z m43 -65 c-11 -11 -32 -3 -32 12 0 12 34 18 39 7 2 -5
-1 -13 -7 -19z"/>
<path d="M5462 5228 c-17 -17 -15 -63 2 -78 18 -15 58 -10 64 8 3 11 0 12 -14
4 -21 -10 -44 -6 -44 9 0 5 16 9 35 9 37 0 42 9 25 41 -12 21 -50 25 -68 7z
m39 -26 c-28 -4 -40 6 -21 18 9 6 20 4 29 -3 12 -10 11 -13 -8 -15z"/>
<path d="M3435 5193 c-4 -21 -9 -46 -12 -55 -2 -10 0 -18 5 -18 5 0 12 18 16
39 3 22 9 46 12 55 3 9 1 16 -4 16 -6 0 -14 -17 -17 -37z"/>
<path d="M6040 5208 c0 -2 7 -21 15 -43 8 -22 14 -55 15 -72 0 -18 5 -33 11
-33 8 0 9 16 5 50 -8 62 -22 100 -36 100 -5 0 -10 -1 -10 -2z"/>
<path d="M6628 5128 c5 -54 8 -65 17 -57 7 8 -7 109 -15 109 -4 0 -5 -24 -2
-52z"/>
<path d="M3755 5074 c-4 -44 -3 -70 4 -77 8 -8 11 -3 11 20 0 16 3 51 6 77 4
29 3 46 -3 46 -6 0 -14 -30 -18 -66z"/>
<path d="M3416 4969 c-9 -47 -7 -89 4 -89 6 0 10 27 10 60 0 67 -4 76 -14 29z"/>
<path d="M6643 4885 c0 -33 2 -45 4 -27 2 18 2 45 0 60 -2 15 -4 0 -4 -33z"/>
<path d="M4056 4902 c-3 -5 3 -45 15 -88 35 -137 39 -145 62 -142 17 2 26 17
43 78 l21 75 17 -60 c9 -33 19 -68 22 -77 3 -11 15 -18 28 -18 21 0 26 11 52
108 33 121 33 124 18 129 -21 7 -41 -25 -54 -87 -14 -67 -20 -65 -40 17 -23
98 -60 95 -85 -8 -10 -39 -20 -68 -22 -65 -3 2 -13 35 -22 73 -11 45 -23 69
-33 71 -9 2 -19 -1 -22 -6z"/>
<path d="M4535 4902 c-3 -3 -5 -56 -5 -117 l0 -112 62 -1 c72 -1 94 13 104 65
13 68 -38 123 -100 107 -23 -5 -27 -4 -26 12 4 36 0 51 -15 51 -8 0 -17 -3
-20 -5z m104 -106 c7 -8 11 -30 9 -48 -2 -27 -8 -34 -30 -36 -19 -2 -30 3 -38
18 -26 48 26 105 59 66z"/>
<path d="M4836 4889 c-17 -14 -26 -30 -26 -49 0 -33 21 -50 83 -70 42 -13 58
-37 36 -51 -24 -15 -57 -10 -71 10 -8 11 -22 21 -33 23 -29 5 -30 -28 -1 -57
52 -52 166 -20 166 47 0 36 -14 49 -71 68 -40 13 -54 22 -54 36 0 27 40 30 62
5 22 -27 53 -28 53 -2 0 28 -47 61 -85 61 -18 0 -44 -9 -59 -21z"/>
<path d="M6070 4815 c0 -43 4 -75 10 -75 6 0 10 32 10 75 0 43 -4 75 -10 75
-6 0 -10 -32 -10 -75z"/>
<path d="M4395 4838 c-32 -18 -44 -40 -45 -79 0 -81 81 -119 137 -63 32 33 23
41 -27 24 -36 -12 -43 -12 -58 3 -18 19 -19 19 56 19 47 0 58 12 48 51 -5 22
-53 57 -78 57 -7 0 -22 -6 -33 -12z m49 -34 c26 -10 18 -24 -14 -24 -29 0 -38
9 -23 23 8 9 17 9 37 1z"/>
<path d="M5053 4840 c-53 -21 -65 -109 -20 -150 36 -35 127 -16 127 26 0 16
-36 19 -45 4 -8 -13 -52 -13 -60 1 -11 17 1 22 57 23 52 1 53 1 51 31 -2 33
-43 75 -71 74 -9 0 -27 -4 -39 -9z m57 -45 c11 -13 7 -15 -25 -15 -32 0 -36 2
-25 15 7 8 18 15 25 15 7 0 18 -7 25 -15z"/>
<path d="M5252 4842 c-7 -5 -24 -7 -38 -4 -26 5 -25 7 -26 -83 0 -81 1 -85 22
-85 16 0 19 8 22 57 3 50 6 59 28 70 13 6 26 10 28 8 2 -2 14 -32 27 -67 18
-51 27 -64 47 -66 21 -3 26 5 51 75 32 93 32 93 8 93 -18 0 -30 -21 -46 -79
-9 -29 -18 -18 -34 37 -6 23 -17 42 -24 42 -7 0 -21 3 -32 5 -11 3 -26 1 -33
-3z"/>
<path d="M5478 4820 c-27 -27 -30 -36 -25 -71 7 -55 31 -79 78 -79 36 0 79 28
79 52 0 12 -38 10 -45 -2 -8 -13 -52 -13 -60 1 -11 16 0 21 52 23 44 1 48 3
51 28 4 35 -37 78 -73 78 -16 0 -39 -12 -57 -30z m82 -25 c11 -13 7 -15 -24
-15 -35 0 -49 13 -23 23 22 9 34 7 47 -8z"/>
<path d="M5667 4843 l-38 -4 3 -82 c3 -74 5 -82 23 -82 21 0 22 1 24 71 1 40
4 46 30 55 19 7 28 16 27 27 -3 19 -13 21 -69 15z"/>
<path d="M3757 4823 c-11 -10 -8 -141 3 -148 6 -4 10 23 10 74 0 81 -1 87 -13
74z"/>
<path d="M3416 4729 c-9 -47 -7 -89 4 -89 6 0 10 27 10 60 0 67 -4 76 -14 29z"/>
<path d="M6643 4645 c0 -33 2 -45 4 -27 2 18 2 45 0 60 -2 15 -4 0 -4 -33z"/>
<path d="M6046 4541 c-9 -16 -27 -42 -41 -59 -14 -17 -21 -33 -16 -36 11 -7
49 40 75 92 9 17 12 32 7 32 -6 0 -17 -13 -25 -29z"/>
<path d="M4972 4353 c-2 -192 4 -244 22 -198 3 8 5 104 4 213 -1 108 -4 177
-8 152 l-6 -45 -5 45 c-3 25 -6 -51 -7 -167z m15 60 c-3 -10 -5 -2 -5 17 0 19
2 27 5 18 2 -10 2 -26 0 -35z m0 -205 c-2 -29 -3 -6 -3 52 0 58 1 81 3 53 2
-29 2 -77 0 -105z"/>
<path d="M3416 4489 c-9 -47 -7 -89 4 -89 6 0 10 27 10 60 0 67 -4 76 -14 29z"/>
<path d="M3800 4501 c0 -16 89 -91 107 -91 13 1 9 8 -17 28 -19 15 -44 37 -56
50 -22 23 -34 28 -34 13z"/>
<path d="M6643 4405 c0 -33 2 -45 4 -27 2 18 2 45 0 60 -2 15 -4 0 -4 -33z"/>
<path d="M4125 4390 c-45 -5 -47 -6 -20 -12 43 -9 118 -5 122 7 3 11 -27 13
-102 5z"/>
<path d="M4448 4392 c-27 -2 -48 -7 -48 -13 0 -12 142 -7 147 6 3 10 -20 12
-99 7z"/>
<path d="M4768 4392 c-27 -2 -48 -7 -48 -13 0 -12 142 -7 147 6 3 10 -20 12
-99 7z"/>
<path d="M5088 4392 c-27 -2 -48 -7 -48 -13 0 -13 142 -7 147 6 3 10 -20 12
-99 7z"/>
<path d="M5408 4392 c-27 -2 -48 -7 -48 -13 0 -13 142 -7 147 6 3 10 -20 12
-99 7z"/>
<path d="M5708 4393 c-50 -8 -29 -23 25 -19 28 3 62 5 75 6 12 0 22 5 22 10 0
10 -67 11 -122 3z"/>
<path d="M3416 4249 c-9 -47 -7 -89 4 -89 6 0 10 27 10 60 0 67 -4 76 -14 29z"/>
<path d="M6643 4165 c0 -33 2 -45 4 -27 2 18 2 45 0 60 -2 15 -4 0 -4 -33z"/>
<path d="M4871 4075 c-196 -43 -324 -171 -325 -325 0 -84 27 -145 92 -209 259
-251 787 -111 787 209 0 156 -129 283 -328 324 -91 19 -140 19 -226 1z m224
-10 c306 -65 421 -339 220 -524 -52 -47 -143 -93 -220 -109 -63 -14 -206 -7
-266 12 -166 52 -273 172 -273 306 0 214 270 372 539 315z"/>
<path d="M4752 3870 c-28 -12 -46 -54 -32 -80 5 -10 36 -27 67 -37 50 -16 58
-21 58 -43 0 -23 -4 -25 -45 -25 -37 0 -47 4 -55 23 -12 27 -35 29 -35 3 0
-50 105 -81 148 -43 51 44 32 87 -49 111 -36 11 -55 23 -57 35 -8 37 59 50 80
16 7 -11 21 -20 30 -20 14 0 16 5 9 23 -14 39 -69 57 -119 37z"/>
<path d="M4920 3760 l0 -110 70 0 c56 0 70 3 70 15 0 12 -13 15 -55 15 l-55 0
0 95 c0 78 -3 95 -15 95 -12 0 -15 -19 -15 -110z"/>
<path d="M5090 3760 l0 -110 56 0 c54 0 92 12 106 34 13 19 9 54 -7 70 -13 12
-13 19 -3 35 9 14 9 28 2 48 -9 27 -13 28 -82 31 l-72 3 0 -111z m123 71 c21
-21 -6 -46 -52 -49 l-41 -3 0 37 0 37 41 -6 c23 -3 46 -10 52 -16z m8 -97 c22
-26 -1 -49 -55 -52 l-46 -3 0 35 c0 36 0 36 44 36 28 0 48 -6 57 -16z"/>
<path d="M3416 4024 c-10 -26 -7 -104 4 -104 6 0 10 27 10 60 0 62 -3 72 -14
44z"/>
<path d="M6643 3925 c0 -33 2 -45 4 -27 2 18 2 45 0 60 -2 15 -4 0 -4 -33z"/>
<path d="M3416 3769 c-9 -47 -7 -89 4 -89 6 0 10 27 10 60 0 67 -4 76 -14 29z"/>
<path d="M6643 3685 c0 -33 2 -45 4 -27 2 18 2 45 0 60 -2 15 -4 0 -4 -33z"/>
<path d="M3417 3553 c-9 -18 -7 -113 3 -113 6 0 10 25 10 60 0 56 -3 70 -13
53z"/>
<path d="M6643 3445 c0 -33 2 -45 4 -27 2 18 2 45 0 60 -2 15 -4 0 -4 -33z"/>
<path d="M4971 3318 c1 -68 6 -61 11 15 2 26 0 47 -4 47 -5 0 -7 -28 -7 -62z"/>
<path d="M4993 3315 c0 -27 2 -38 4 -22 2 15 2 37 0 50 -2 12 -4 0 -4 -28z"/>
<path d="M3416 3289 c-9 -47 -7 -89 4 -89 6 0 10 27 10 60 0 67 -4 76 -14 29z"/>
<path d="M4983 3253 c-18 -7 -16 -43 2 -43 8 0 15 5 15 10 0 6 -6 10 -12 10
-9 0 -8 3 2 10 16 10 11 20 -7 13z"/>
<path d="M6643 3205 c0 -33 2 -45 4 -27 2 18 2 45 0 60 -2 15 -4 0 -4 -33z"/>
<path d="M3935 3210 c-4 -6 23 -10 74 -10 47 0 81 4 81 10 0 6 -31 10 -74 10
-41 0 -78 -4 -81 -10z"/>
<path d="M4120 3210 c0 -6 32 -10 75 -10 43 0 75 4 75 10 0 6 -32 10 -75 10
-43 0 -75 -4 -75 -10z"/>
<path d="M4440 3210 c0 -6 32 -10 75 -10 43 0 75 4 75 10 0 6 -32 10 -75 10
-43 0 -75 -4 -75 -10z"/>
<path d="M4760 3210 c0 -6 32 -10 75 -10 43 0 75 4 75 10 0 6 -32 10 -75 10
-43 0 -75 -4 -75 -10z"/>
<path d="M5080 3210 c0 -6 32 -10 75 -10 43 0 75 4 75 10 0 6 -32 10 -75 10
-43 0 -75 -4 -75 -10z"/>
<path d="M5400 3210 c0 -6 32 -10 75 -10 43 0 75 4 75 10 0 6 -32 10 -75 10
-43 0 -75 -4 -75 -10z"/>
<path d="M5717 3213 c-4 -6 15 -13 46 -16 28 -4 62 -9 75 -13 25 -7 31 10 6
20 -32 12 -121 18 -127 9z"/>
<path d="M3753 3118 c-23 -25 -53 -81 -53 -98 0 -22 19 -8 29 22 6 17 23 46
37 65 28 37 19 45 -13 11z"/>
<path d="M3419 3078 c0 -2 -3 -29 -6 -60 -3 -38 -1 -58 6 -58 7 0 11 24 11 60
0 33 -2 60 -5 60 -3 0 -5 -1 -6 -2z"/>
<path d="M4212 3060 c-47 -44 -16 -124 45 -121 15 1 35 2 44 2 11 0 15 9 14
27 -3 42 -3 42 -36 42 -17 0 -28 -4 -24 -10 3 -5 15 -10 25 -10 23 0 17 -25
-7 -34 -43 -17 -76 32 -54 80 12 27 58 34 67 9 8 -19 24 -19 24 0 0 17 -30 35
-57 35 -11 0 -29 -9 -41 -20z"/>
<path d="M5190 3010 c0 -40 2 -71 5 -68 8 7 8 128 1 135 -3 4 -6 -27 -6 -67z"/>
<path d="M5447 3073 c-11 -10 -8 -133 3 -133 6 0 10 30 10 70 0 70 -1 76 -13
63z"/>
<path d="M5330 3005 l0 -65 40 0 c35 0 42 4 51 26 14 37 -13 78 -47 71 -18 -3
-24 0 -24 14 0 11 -4 19 -10 19 -6 0 -10 -28 -10 -65z m74 -1 c5 -14 -8 -54
-19 -54 -28 0 -48 44 -28 63 12 13 41 7 47 -9z"/>
<path d="M5985 3048 c4 -13 9 -47 12 -75 6 -60 23 -72 23 -17 0 45 -20 114
-33 114 -5 0 -6 -10 -2 -22z"/>
<path d="M4340 2988 c0 -53 14 -67 16 -16 1 17 9 37 18 43 23 17 20 23 -9 21
-23 -1 -25 -5 -25 -48z"/>
<path d="M4400 2995 c0 -47 22 -72 50 -55 8 5 18 6 22 4 4 -3 8 -2 9 3 5 47 4
75 -3 85 -5 8 -8 2 -8 -18 0 -36 -22 -70 -38 -60 -7 4 -12 25 -12 47 0 21 -4
39 -10 39 -5 0 -10 -20 -10 -45z"/>
<path d="M4510 2968 c0 -39 4 -68 10 -68 6 0 10 8 10 19 0 13 7 19 26 19 30 0
44 16 44 53 0 34 -19 49 -58 46 l-32 -2 0 -67z m65 17 c0 -23 -4 -30 -20 -30
-21 0 -31 25 -21 51 11 28 41 12 41 -21z"/>
<path d="M4632 3028 c-7 -7 -12 -27 -12 -45 0 -40 32 -59 65 -38 23 14 32 60
14 81 -14 17 -51 18 -67 2z m53 -43 c0 -36 -28 -46 -44 -16 -15 27 -3 53 23
49 16 -2 21 -10 21 -33z"/>
<path d="M4792 3028 c-7 -7 -12 -24 -12 -38 0 -14 5 -31 12 -38 17 -17 65 -15
72 3 6 18 -5 20 -21 4 -13 -13 -43 -5 -43 11 0 5 16 10 35 10 37 0 42 9 25 41
-12 21 -50 25 -68 7z m53 -18 c4 -6 -5 -10 -19 -10 -14 0 -26 5 -26 10 0 6 9
10 19 10 11 0 23 -4 26 -10z"/>
<path d="M4889 3024 c-11 -14 -10 -18 6 -30 10 -8 25 -14 32 -14 7 0 13 -7 13
-15 0 -17 -25 -20 -35 -5 -8 13 -25 13 -25 0 0 -18 39 -31 60 -20 30 16 25 46
-10 59 -39 13 -39 25 1 17 27 -5 30 -4 19 9 -16 20 -44 19 -61 -1z"/>
<path d="M4993 3028 c-32 -41 -18 -88 26 -88 16 0 33 5 36 11 10 16 -4 24 -17
11 -17 -17 -26 -15 -38 7 -20 39 18 69 48 39 9 -9 12 -8 12 4 0 27 -50 38 -67
16z"/>
<path d="M5090 3025 c-11 -13 -8 -14 19 -9 40 8 40 -8 1 -23 -20 -7 -30 -18
-30 -31 0 -22 20 -30 62 -24 24 4 26 7 21 41 -2 20 -6 42 -9 49 -5 17 -49 15
-64 -3z m48 -57 c-7 -19 -38 -22 -38 -4 0 10 9 16 21 16 12 0 19 -5 17 -12z"/>
<path d="M5237 3033 c-15 -15 -5 -22 23 -16 41 8 39 -12 -2 -23 -23 -7 -33
-16 -33 -29 0 -17 8 -21 46 -23 l45 -3 -4 38 c-2 21 -9 44 -14 51 -11 13 -50
17 -61 5z m53 -62 c0 -12 -29 -23 -41 -15 -5 3 -7 10 -4 15 8 12 45 12 45 0z"/>
<path d="M5496 3024 c-19 -18 -21 -55 -4 -72 15 -15 64 -16 73 -1 11 17 -3 23
-20 9 -16 -13 -45 -7 -45 10 0 5 16 10 35 10 27 0 35 4 35 18 0 39 -45 55 -74
26z m49 -14 c4 -6 -5 -10 -20 -10 -15 0 -24 4 -20 10 3 6 12 10 20 10 8 0 17
-4 20 -10z"/>
<path d="M6643 2965 c0 -33 2 -45 4 -27 2 18 2 45 0 60 -2 15 -4 0 -4 -33z"/>
<path d="M3416 2809 c-9 -47 -7 -89 4 -89 6 0 10 27 10 60 0 67 -4 76 -14 29z"/>
<path d="M3690 2765 c0 -41 4 -75 8 -75 4 0 8 34 9 75 1 41 -3 75 -8 75 -5 0
-9 -34 -9 -75z"/>
<path d="M6643 2725 c0 -33 2 -45 4 -27 2 18 2 45 0 60 -2 15 -4 0 -4 -33z"/>
<path d="M6010 2673 c0 -42 3 -73 7 -70 9 9 10 147 1 147 -5 0 -8 -34 -8 -77z"/>
<path d="M4121 2570 c-22 -61 -41 -113 -41 -115 0 -3 10 -5 23 -5 16 0 26 9
33 28 9 22 17 28 47 30 31 2 38 -2 52 -28 11 -21 23 -30 40 -30 l25 0 -21 53
c-12 28 -31 79 -43 112 -19 49 -27 61 -48 63 -24 3 -28 -4 -67 -108z m89 -17
c0 -7 -12 -13 -26 -13 -20 0 -25 4 -20 16 3 9 9 28 13 42 l6 27 13 -30 c7 -16
13 -36 14 -42z"/>
<path d="M4802 2664 c-25 -18 -31 -74 -8 -93 7 -6 37 -18 65 -27 52 -15 63
-32 36 -54 -20 -16 -62 -5 -75 20 -14 27 -50 27 -50 0 0 -48 83 -84 139 -60
16 6 35 25 42 41 10 26 9 34 -7 56 -11 14 -38 31 -60 38 -54 16 -64 23 -57 40
8 23 58 18 75 -7 9 -14 20 -19 31 -15 23 9 21 29 -3 55 -25 27 -94 30 -128 6z"/>
<path d="M4308 2526 c-4 -119 -1 -136 23 -136 14 0 19 7 19 30 0 29 1 30 38
24 52 -8 87 28 85 88 -3 64 -32 88 -104 86 l-58 -2 -3 -90z m111 40 c31 -37
-9 -103 -46 -80 -37 23 -24 94 17 94 10 0 23 -6 29 -14z"/>
<path d="M4500 2503 c0 -106 1 -113 20 -113 16 0 20 7 20 35 0 33 1 34 25 23
60 -27 121 48 95 118 -16 42 -39 53 -102 51 l-58 -1 0 -113z m108 65 c7 -7 12
-24 12 -38 0 -51 -52 -69 -72 -25 -22 49 25 98 60 63z"/>
<path d="M4996 2589 c-28 -33 -32 -64 -15 -103 22 -48 97 -57 134 -16 24 27 9
45 -21 26 -38 -26 -74 -16 -74 19 0 2 26 5 58 7 54 3 57 4 54 28 -10 70 -90
94 -136 39z m88 -24 c4 -12 -3 -15 -29 -15 -33 0 -43 8 -28 23 12 13 51 7 57
-8z"/>
<path d="M5155 2612 c-3 -3 -5 -41 -5 -84 0 -77 0 -78 25 -78 24 0 25 3 25 55
0 49 3 57 25 67 14 6 27 9 30 7 2 -3 15 -34 29 -69 19 -53 28 -64 46 -64 19 0
27 12 52 78 18 51 25 83 19 89 -19 19 -39 -2 -52 -52 -7 -28 -15 -48 -18 -45
-3 3 -13 26 -22 52 l-16 47 -66 1 c-37 0 -69 -1 -72 -4z"/>
<path d="M5445 2595 c-53 -52 -17 -155 55 -155 33 0 86 42 75 60 -9 15 -31 12
-45 -5 -18 -21 -47 -19 -60 5 -10 19 -8 20 50 20 58 0 60 1 60 25 0 36 -42 75
-80 75 -19 0 -40 -9 -55 -25z m85 -30 c11 -13 7 -15 -30 -15 -37 0 -41 2 -30
15 7 8 20 15 30 15 10 0 23 -7 30 -15z"/>
<path d="M5600 2535 c0 -78 2 -85 20 -85 16 0 20 7 20 34 0 48 17 87 40 93 25
7 27 43 2 43 -10 0 -23 -5 -30 -12 -9 -9 -12 -9 -12 0 0 7 -9 12 -20 12 -18 0
-20 -7 -20 -85z"/>
<path d="M3419 2598 c0 -2 -3 -29 -6 -60 -3 -38 -1 -58 6 -58 7 0 11 24 11 60
0 33 -2 60 -5 60 -3 0 -5 -1 -6 -2z"/>
<path d="M6643 2485 c0 -33 2 -45 4 -27 2 18 2 45 0 60 -2 15 -4 0 -4 -33z"/>
<path d="M3690 2445 c0 -43 4 -75 10 -75 6 0 10 32 10 75 0 43 -4 75 -10 75
-6 0 -10 -32 -10 -75z"/>
<path d="M6000 2406 c0 -13 -7 -43 -15 -66 -15 -43 -12 -67 6 -40 24 39 38
130 19 130 -5 0 -10 -11 -10 -24z"/>
<path d="M3419 2358 c-8 -23 -8 -108 0 -113 7 -4 11 14 11 54 0 34 -2 61 -5
61 -3 0 -5 -1 -6 -2z"/>
<path d="M6643 2245 c0 -33 2 -45 4 -27 2 18 2 45 0 60 -2 15 -4 0 -4 -33z"/>
<path d="M3790 2221 c0 -12 98 -61 122 -61 33 0 19 17 -24 30 -24 7 -52 18
-63 26 -23 16 -35 18 -35 5z"/>
<path d="M5785 2183 c-68 -8 -95 -14 -91 -21 7 -12 134 2 148 16 13 13 8 13
-57 5z"/>
<path d="M4103 2159 c9 -5 17 -18 17 -27 1 -16 2 -16 14 1 9 12 27 17 59 17
25 0 49 5 52 10 4 6 -24 10 -77 10 -61 -1 -78 -3 -65 -11z"/>
<path d="M4414 2161 c8 -12 143 -14 151 -1 4 6 -22 10 -75 10 -45 0 -79 -4
-76 -9z"/>
<path d="M4734 2161 c8 -12 143 -14 151 -1 4 6 -22 10 -75 10 -45 0 -79 -4
-76 -9z"/>
<path d="M5054 2161 c8 -12 143 -14 151 -1 4 6 -22 10 -75 10 -45 0 -79 -4
-76 -9z"/>
<path d="M5374 2161 c8 -12 143 -14 151 -1 4 6 -22 10 -75 10 -45 0 -79 -4
-76 -9z"/>
<path d="M3419 2118 c-8 -23 -8 -108 0 -113 7 -4 11 14 11 54 0 34 -2 61 -5
61 -3 0 -5 -1 -6 -2z"/>
<path d="M4128 2028 c5 -113 9 -125 10 -30 1 50 -1 92 -5 92 -5 0 -7 -28 -5
-62z"/>
<path d="M6643 2005 c0 -33 2 -45 4 -27 2 18 2 45 0 60 -2 15 -4 0 -4 -33z"/>
<path d="M4128 1883 c7 -3 16 -2 19 1 4 3 -2 6 -13 5 -11 0 -14 -3 -6 -6z"/>
<path d="M3419 1878 c-8 -23 -8 -108 0 -113 7 -4 11 14 11 54 0 34 -2 61 -5
61 -3 0 -5 -1 -6 -2z"/>
<path d="M4117 1857 c-3 -9 -27 -14 -68 -16 -158 -6 -310 -49 -379 -108 l-40
-35 0 -338 0 -339 26 -20 c14 -11 46 -27 72 -35 111 -35 167 -41 407 -40 263
0 342 11 442 59 l51 26 7 62 c4 34 5 187 3 339 l-3 277 -30 31 c-59 63 -179
102 -360 118 -56 6 -101 14 -103 21 -5 15 -19 14 -25 -2z m23 -17 c0 -5 -4
-10 -10 -10 -5 0 -10 5 -10 10 0 6 5 10 10 10 6 0 10 -4 10 -10z m-20 -21 c0
-8 5 -7 15 1 33 27 274 -8 382 -56 154 -68 133 -163 -49 -224 -310 -104 -828
-26 -828 125 0 35 71 90 147 116 124 41 333 65 333 38z m-392 -268 c116 -59
389 -88 578 -63 111 15 232 55 274 91 19 17 37 30 40 31 6 0 2 -521 -4 -527
-2 -3 -21 4 -43 15 -84 43 -192 57 -443 57 -250 0 -360 -14 -442 -56 -21 -11
-40 -19 -43 -19 -3 0 -5 120 -5 267 l0 266 23 -20 c12 -11 41 -31 65 -42z
m632 -416 c131 -18 169 -28 217 -52 207 -107 -416 -204 -782 -122 -128 29
-182 73 -134 110 86 65 452 98 699 64z"/>
<path d="M3852 1635 c1 -39 2 -42 5 -16 3 26 7 31 14 20 5 -8 9 -9 9 -3 0 5
-7 19 -15 30 -13 17 -14 15 -13 -31z"/>
<path d="M3926 1665 c-3 -8 -1 -15 4 -15 5 0 11 -8 13 -17 3 -10 5 -3 6 15 1
33 -12 44 -23 17z"/>
<path d="M4208 1665 c-7 -13 2 -85 11 -85 4 0 5 17 3 38 -5 50 -7 58 -14 47z"/>
<path d="M3970 1639 c0 -5 5 -7 10 -4 6 3 10 8 10 11 0 2 -4 4 -10 4 -5 0 -10
-5 -10 -11z"/>
<path d="M4014 1622 c1 -19 -5 -28 -18 -30 -14 -3 -17 0 -13 13 4 9 3 14 -3
10 -22 -14 -10 -35 19 -33 25 2 29 6 29 30 -1 16 -4 31 -8 33 -4 3 -7 -8 -6
-23z"/>
<path d="M4054 1636 c-14 -38 22 -74 48 -48 6 6 1 8 -16 5 -21 -4 -25 -2 -23
18 0 13 6 27 12 31 6 5 5 8 -3 8 -7 0 -15 -6 -18 -14z"/>
<path d="M4096 1637 c3 -10 9 -15 12 -12 3 3 0 11 -7 18 -10 9 -11 8 -5 -6z"/>
<path d="M4130 1635 c0 -8 4 -15 8 -15 5 0 9 7 9 15 0 8 -4 15 -9 15 -4 0 -8
-7 -8 -15z"/>
<path d="M4251 1613 c2 -35 2 -35 6 -8 3 16 10 33 16 37 8 5 6 8 -5 8 -14 0
-18 -8 -17 -37z"/>
<path d="M4295 1630 c-7 -22 9 -50 28 -50 6 0 2 6 -9 14 -16 13 -17 18 -6 35
7 12 8 21 3 21 -5 0 -13 -9 -16 -20z"/>
<path d="M4344 1621 c1 -17 4 -31 9 -31 10 0 9 32 -2 48 -5 9 -8 3 -7 -17z"/>
<path d="M3887 1602 c1 -8 3 -16 3 -18 0 -3 5 -2 10 1 6 3 10 11 10 16 0 6 -4
8 -9 5 -5 -4 -11 -3 -14 1 -2 5 -2 2 0 -5z"/>
<path d="M4167 1603 c5 -13 2 -15 -15 -11 -12 4 -22 2 -22 -4 0 -17 45 -4 48
15 2 9 -1 17 -7 17 -6 0 -8 -7 -4 -17z"/>
<path d="M3941 1594 c0 -11 3 -14 6 -6 3 7 2 16 -1 19 -3 4 -6 -2 -5 -13z"/>
<path d="M3968 1355 c-2 -47 -1 -90 0 -95 5 -15 79 -12 111 5 34 17 41 33 41
90 0 62 -27 85 -96 85 l-53 0 -3 -85z m106 49 c19 -19 21 -84 4 -106 -7 -9
-29 -18 -48 -20 l-35 -3 -3 73 -3 72 35 0 c19 0 42 -7 50 -16z"/>
<path d="M4150 1345 l0 -95 53 0 c31 0 61 6 75 16 25 18 29 56 7 78 -9 9 -11
17 -5 21 14 9 13 48 -2 63 -7 7 -38 12 -70 12 l-58 0 0 -95z m108 63 c20 -20
-4 -48 -43 -48 -32 0 -35 2 -35 30 0 27 3 30 33 30 18 0 38 -5 45 -12z m0 -77
c23 -14 9 -45 -23 -52 -43 -8 -55 -1 -55 32 0 26 3 29 33 29 17 0 38 -4 45 -9z"/>
<path d="M6643 1765 c0 -33 2 -45 4 -27 2 18 2 45 0 60 -2 15 -4 0 -4 -33z"/>
<path d="M5730 1803 c-178 -28 -287 -68 -333 -122 l-27 -33 0 -327 c0 -327 0
-328 23 -348 65 -59 222 -86 487 -86 173 0 221 3 309 22 57 12 116 28 131 36
61 32 59 16 60 370 0 333 -1 352 -39 383 -44 37 -149 75 -249 93 -98 17 -291
23 -362 12z m380 -29 c117 -21 225 -73 247 -120 16 -33 16 -35 -4 -62 -64 -86
-232 -133 -478 -133 -210 0 -381 40 -453 105 -162 149 279 283 688 210z m260
-464 l0 -270 -39 19 c-78 40 -276 71 -456 71 -181 0 -388 -32 -452 -70 l-33
-19 0 265 0 265 34 -26 c59 -45 213 -92 314 -97 l37 -1 -32 -4 -33 -4 0 -95 0
-94 55 0 c74 0 105 28 105 95 0 35 -6 52 -25 70 l-24 25 39 0 40 0 0 -95 0
-95 57 0 c38 0 62 5 75 17 22 20 23 56 3 73 -11 9 -13 16 -5 24 14 14 13 51
-2 64 -7 5 -22 12 -33 15 -12 3 -5 5 17 6 104 3 272 56 322 102 17 16 32 29
34 29 1 0 2 -122 2 -270z m-543 83 c20 -26 16 -80 -7 -103 -11 -11 -33 -20
-50 -20 l-30 0 0 76 0 77 37 -6 c21 -4 44 -14 50 -24z m161 21 c16 -5 22 -13
20 -28 -2 -16 -11 -22 -40 -24 -36 -3 -38 -2 -38 27 0 33 11 37 58 25z m28
-99 c10 -24 -15 -45 -52 -45 -31 0 -34 3 -34 30 0 28 2 30 40 30 27 0 43 -5
46 -15z m188 -229 c94 -21 161 -55 161 -81 0 -27 -68 -60 -170 -82 -64 -14
-127 -18 -320 -18 -257 0 -351 12 -443 56 -37 18 -43 25 -40 48 2 21 13 30 60
49 104 41 203 51 453 48 165 -3 250 -8 299 -20z"/>
<path d="M5590 1670 c0 -27 4 -50 9 -50 5 0 7 9 4 19 -4 15 1 20 24 24 l28 4
-27 2 c-21 1 -28 6 -28 20 0 14 8 21 28 24 25 4 25 4 -5 6 l-33 1 0 -50z"/>
<path d="M5833 1665 c0 -27 2 -38 4 -22 2 15 2 37 0 50 -2 12 -4 0 -4 -28z"/>
<path d="M5680 1670 c0 -11 7 -20 15 -20 7 0 19 -8 24 -17 9 -16 10 -17 11 -1
0 9 -9 20 -20 23 -26 8 -26 29 0 22 11 -3 18 -1 14 4 -11 18 -44 10 -44 -11z"/>
<path d="M5763 1683 c-19 -7 -16 -48 4 -64 15 -13 15 -12 3 7 -18 28 -6 58 20
51 11 -3 18 -1 14 4 -6 10 -21 11 -41 2z"/>
<path d="M5893 1684 c25 -8 21 -21 -8 -28 -15 -4 -25 -13 -25 -24 1 -16 1 -16
11 1 12 21 44 23 35 2 -3 -8 -1 -15 5 -15 6 0 9 15 7 32 -2 24 -8 33 -23 35
-16 1 -16 1 -2 -3z"/>
<path d="M5986 1675 c-9 -26 -7 -32 5 -12 6 10 9 21 6 23 -2 3 -7 -2 -11 -11z"/>
<path d="M6020 1675 c-10 -11 -10 -21 -2 -38 10 -21 10 -20 9 8 -2 24 2 30 18
30 15 0 20 -7 20 -27 -1 -14 3 -24 7 -22 12 8 10 38 -4 52 -16 16 -33 15 -48
-3z"/>
<path d="M5946 1660 c8 -31 21 -46 31 -36 4 4 3 10 -3 14 -6 4 -16 16 -23 27
-11 18 -11 18 -5 -5z"/>
<path d="M5795 1630 c-3 -5 -1 -10 4 -10 6 0 11 5 11 10 0 6 -2 10 -4 10 -3 0
-8 -4 -11 -10z"/>
<path d="M8030 1763 c-162 -25 -260 -63 -308 -117 l-32 -37 0 -329 0 -329 26
-20 c67 -53 231 -81 474 -81 202 0 288 9 397 41 121 36 114 12 113 395 0 380
5 358 -101 411 -97 48 -238 73 -406 72 -76 -1 -149 -3 -163 -6z m410 -27 c146
-32 250 -93 250 -146 0 -14 -16 -38 -40 -61 -131 -125 -634 -148 -852 -38 -65
32 -88 57 -88 96 0 75 122 136 330 163 88 12 320 4 400 -14z m250 -465 l0
-268 -41 20 c-76 37 -202 58 -394 64 -245 7 -384 -12 -527 -72 -17 -7 -18 9
-18 254 l0 261 46 -30 c43 -27 129 -59 195 -74 74 -16 258 -24 355 -16 166 15
314 60 360 111 9 10 19 19 21 19 1 0 3 -121 3 -269z m-230 -211 c97 -16 194
-47 215 -70 18 -20 18 -21 -3 -43 -25 -26 -92 -49 -197 -69 -105 -19 -487 -16
-589 5 -147 31 -213 83 -153 121 34 23 167 54 272 65 104 11 360 6 455 -9z"/>
<path d="M7922 1641 c-9 -5 -12 -24 -10 -52 3 -39 6 -44 29 -47 14 -2 31 3 37
11 12 14 5 87 -8 87 -5 0 -6 -9 -3 -20 4 -16 0 -20 -21 -20 -28 0 -34 18 -14
38 14 14 9 15 -10 3z m53 -71 c0 -9 -11 -16 -27 -18 -23 -3 -28 1 -28 18 0 17
5 21 28 18 16 -2 27 -9 27 -18z"/>
<path d="M8172 1600 c0 -30 2 -47 5 -37 6 22 11 22 35 -5 l20 -23 -17 29 c-14
23 -15 30 -4 37 10 6 10 9 2 9 -6 0 -15 -6 -20 -12 -5 -9 -10 -1 -14 22 -5 29
-6 26 -7 -20z"/>
<path d="M8020 1609 c-12 -8 -9 -9 9 -4 19 6 23 4 18 -9 -4 -9 -2 -16 4 -16
13 0 8 32 -6 37 -5 1 -17 -2 -25 -8z"/>
<path d="M8103 1613 c-7 -2 -13 -9 -13 -15 0 -7 5 -6 14 1 7 6 22 9 32 5 16
-5 16 -4 4 5 -16 12 -19 12 -37 4z"/>
<path d="M8343 1613 c-7 -2 -13 -9 -13 -15 0 -6 6 -6 15 2 8 6 19 9 25 5 16
-10 12 -43 -7 -54 -20 -12 -13 -14 11 -5 9 4 16 18 16 34 0 16 -7 30 -16 34
-9 3 -16 6 -17 5 -1 0 -8 -3 -14 -6z"/>
<path d="M8417 1613 c-10 -10 -8 -33 3 -33 5 0 7 7 3 17 -5 13 -2 15 15 11 12
-4 20 -2 16 3 -6 11 -28 12 -37 2z"/>
<path d="M8241 1590 c-1 -26 15 -50 33 -50 5 0 3 6 -6 13 -9 6 -19 23 -21 37
l-4 25 -2 -25z"/>
<path d="M8010 1560 c0 -12 7 -20 18 -20 13 0 14 2 3 9 -7 5 -10 14 -7 20 4 6
2 11 -3 11 -6 0 -11 -9 -11 -20z"/>
<path d="M8291 1564 c0 -11 3 -14 6 -6 3 7 2 16 -1 19 -3 4 -6 -2 -5 -13z"/>
<path d="M8332 1560 c0 -14 2 -19 5 -12 2 6 2 18 0 25 -3 6 -5 1 -5 -13z"/>
<path d="M8450 1571 c12 -9 12 -11 -2 -16 -10 -4 -23 -3 -30 1 -10 5 -10 4 -2
-6 7 -7 21 -9 34 -5 23 7 23 26 -1 33 -12 3 -12 2 1 -7z"/>
<path d="M8050 1561 c0 -6 4 -13 10 -16 6 -3 7 1 4 9 -7 18 -14 21 -14 7z"/>
<path d="M8093 1560 c5 -21 43 -25 50 -6 5 13 3 14 -14 3 -16 -10 -22 -9 -30
3 -9 13 -10 13 -6 0z"/>
<path d="M7771 1259 c-24 -58 -25 -69 -11 -69 6 0 10 7 10 15 0 21 50 19 66
-2 7 -10 15 -16 17 -13 8 8 -37 113 -49 117 -6 2 -21 -20 -33 -48z m42 1 c4
-15 0 -20 -13 -20 -13 0 -17 5 -13 20 3 11 9 20 13 20 4 0 10 -9 13 -20z"/>
<path d="M8441 1296 c-19 -23 -7 -44 31 -54 18 -4 33 -15 33 -23 0 -20 -44
-24 -51 -5 -8 20 -24 21 -24 1 0 -26 49 -38 76 -20 36 23 27 51 -21 63 -33 9
-44 29 -20 38 9 4 25 -2 37 -12 20 -19 20 -19 17 1 -5 26 -60 33 -78 11z"/>
<path d="M8550 1295 c-7 -9 -9 -19 -5 -23 4 -4 10 -1 12 6 6 14 43 16 43 2 0
-6 -7 -13 -15 -16 -21 -8 -19 -21 5 -27 13 -3 18 -10 14 -21 -8 -21 -34 -20
-50 2 -13 16 -13 16 -14 -1 0 -22 39 -38 62 -26 13 7 16 20 15 52 -2 23 -6 48
-11 55 -10 17 -41 15 -56 -3z"/>
<path d="M7871 1231 l1 -46 10 38 c13 48 38 50 38 2 0 -19 5 -35 10 -35 6 0
10 16 10 35 0 28 4 35 19 35 15 0 21 -9 24 -37 4 -33 4 -32 3 7 l-1 45 -57 1
-58 1 1 -46z"/>
<path d="M8020 1265 c-11 -13 -8 -14 19 -9 40 8 40 -4 1 -17 -33 -12 -41 -44
-12 -50 9 -2 49 -1 87 2 39 3 58 6 43 7 -33 2 -35 12 -8 37 29 26 25 45 -9 45
-38 0 -50 -18 -15 -22 l26 -3 -31 -29 -31 -30 0 30 c0 49 -42 73 -70 39z m50
-45 c0 -12 -28 -25 -36 -17 -9 9 6 27 22 27 8 0 14 -5 14 -10z"/>
<path d="M8201 1266 c-7 -8 -11 -27 -9 -43 3 -25 7 -28 38 -28 31 0 35 3 38
28 4 32 -13 57 -38 57 -10 0 -23 -6 -29 -14z m52 -18 c6 -18 -11 -48 -27 -48
-17 0 -27 25 -20 45 7 18 41 20 47 3z"/>
<path d="M8290 1233 c0 -24 4 -43 9 -43 5 0 8 11 7 24 -4 32 8 50 28 43 10 -4
16 -18 16 -37 0 -17 4 -29 8 -26 5 3 6 22 3 43 -6 35 -9 38 -39 38 -31 1 -32
0 -32 -42z"/>
<path d="M3419 1638 c-8 -23 -8 -108 0 -113 7 -4 11 14 11 54 0 34 -2 61 -5
61 -3 0 -5 -1 -6 -2z"/>
<path d="M6643 1525 c0 -33 2 -45 4 -27 2 18 2 45 0 60 -2 15 -4 0 -4 -33z"/>
<path d="M3423 1340 c0 -36 2 -50 4 -32 2 17 2 47 0 65 -2 17 -4 3 -4 -33z"/>
<path d="M6460 1331 c0 -5 -10 -11 -22 -13 -13 -2 12 -5 55 -6 62 -1 77 1 77
13 0 11 -13 15 -55 15 -30 0 -55 -4 -55 -9z m83 -8 c-13 -2 -33 -2 -45 0 -13
2 -3 4 22 4 25 0 35 -2 23 -4z"/>
<path d="M6598 1333 c-24 -6 -23 -23 2 -23 11 0 20 5 20 10 0 6 8 10 18 10 10
0 13 -3 6 -8 -14 -9 -18 -92 -4 -92 5 0 10 18 10 40 0 22 5 40 10 40 6 0 10 7
10 15 0 15 -33 19 -72 8z"/>
<path d="M7140 1330 l465 -5 -445 -5 -445 -5 453 -3 c396 -2 452 0 452 13 0
13 -58 15 -472 13 l-473 -3 465 -5z"/>
<path d="M4690 1310 c12 -8 12 -10 1 -10 -8 0 -12 -3 -8 -6 3 -3 12 -2 19 2 7
5 24 8 38 7 l25 -2 -25 8 c-14 5 -34 9 -45 10 -16 1 -17 -1 -5 -9z"/>
<path d="M5035 1310 l-250 -6 258 -1 c154 -1 257 2 257 8 0 5 -3 8 -7 7 -5 -1
-120 -5 -258 -8z"/>
<path d="M3438 1155 c-4 -4 -2 -19 4 -34 5 -14 14 -37 19 -50 18 -46 19 -14 1
38 -10 29 -21 49 -24 46z"/>
<path d="M6582 1058 c-29 -67 -21 -74 12 -9 28 54 30 61 19 61 -5 0 -18 -24
-31 -52z"/>
<path d="M3552 940 c6 -18 76 -75 83 -68 3 3 -16 22 -41 43 -26 21 -45 33 -42
25z"/>
<path d="M6431 885 c-19 -14 -40 -26 -45 -28 -6 -3 -8 -7 -4 -11 6 -8 82 36
93 54 10 17 -8 11 -44 -15z"/>
<path d="M3750 819 c0 -5 17 -11 38 -14 20 -4 45 -9 55 -12 9 -2 17 0 17 5 0
5 -25 13 -55 19 -30 5 -55 6 -55 2z"/>
<path d="M6155 800 c-8 -12 61 -12 90 0 15 6 6 9 -32 9 -28 1 -55 -3 -58 -9z"/>
<path d="M4000 794 c36 -8 100 -9 100 -2 0 5 -26 7 -57 7 -32 -1 -51 -3 -43
-5z"/>
<path d="M4240 794 c36 -8 100 -9 100 -2 0 5 -26 7 -57 7 -32 -1 -51 -3 -43
-5z"/>
<path d="M4480 794 c36 -8 100 -9 100 -2 0 5 -26 7 -57 7 -32 -1 -51 -3 -43
-5z"/>
<path d="M4711 796 c8 -8 109 -12 109 -4 0 4 -25 8 -57 8 -31 0 -54 -2 -52 -4z"/>
<path d="M4960 794 c36 -8 100 -9 100 -2 0 5 -26 7 -57 7 -32 -1 -51 -3 -43
-5z"/>
<path d="M5191 796 c8 -8 109 -12 109 -4 0 4 -25 8 -57 8 -31 0 -54 -2 -52 -4z"/>
<path d="M5440 794 c36 -8 100 -9 100 -2 0 5 -26 7 -57 7 -32 -1 -51 -3 -43
-5z"/>
<path d="M5680 794 c36 -8 100 -9 100 -2 0 5 -26 7 -57 7 -32 -1 -51 -3 -43
-5z"/>
<path d="M5938 793 c18 -2 45 -2 60 0 15 2 0 4 -33 4 -33 0 -45 -2 -27 -4z"/>
</g>
</svg>
